<?xml version="1.0" encoding="utf-8"?>
<!-- Generator: Adobe Illustrator 22.0.1, SVG Export Plug-In . SVG Version: 6.00 Build 0)  -->
<svg version="1.1" id="Laag_1" xmlns="http://www.w3.org/2000/svg" xmlns:xlink="http://www.w3.org/1999/xlink" x="0px" y="0px"
	 viewBox="0 0 24 24" style="enable-background:new 0 0 24 24;" xml:space="preserve">
<style type="text/css">
	.st0{fill:none;}
	.st1{fill:#FFFFFF;}
</style>
<g id="Bounding_Boxes">
	<g id="ui_x5F_spec_x5F_header_copy_3">
	</g>
	<path class="st0" d="M0,0h24v24H0V0z"/>
</g>
<g id="Duotone">
	<g id="ui_x5F_spec_x5F_header_copy_2">
	</g>
	<path class="st1" d="M11.5,17.1c-2.1,0-2.9-0.9-3-2.1H6.3c0.1,2.2,1.8,3.4,3.7,3.8V21h3v-2.1c1.9-0.4,3.5-1.5,3.5-3.6
		c0-2.8-2.4-3.8-4.7-4.4s-3-1.2-3-2.1c0-1.1,1-1.8,2.7-1.8c1.8,0,2.4,0.8,2.5,2.1h2.2c-0.1-1.7-1.1-3.3-3.2-3.8V3h-3v2.2
		C8.1,5.6,6.5,6.8,6.5,8.8c0,2.3,1.9,3.5,4.7,4.1c2.5,0.6,3,1.5,3,2.4C14.2,16,13.7,17.1,11.5,17.1z"/>
</g>
</svg>
