<?xml version="1.0" encoding="utf-8"?>
<!-- Generator: Adobe Illustrator 22.0.1, SVG Export Plug-In . SVG Version: 6.00 Build 0)  -->
<svg version="1.1" id="Laag_1" xmlns="http://www.w3.org/2000/svg" xmlns:xlink="http://www.w3.org/1999/xlink" x="0px" y="0px"
	 viewBox="0 0 24 24" style="enable-background:new 0 0 24 24;" xml:space="preserve">
<style type="text/css">
	.st0{fill:none;}
	.st1{opacity:0.3;enable-background:new    ;}
	.st2{fill:#FFFFFF;}
</style>
<g id="Bounding_Boxes">
	<g id="ui_x5F_spec_x5F_header_copy_2">
	</g>
	<path class="st0" d="M0,0h24v24H0V0z"/>
</g>
<g id="Duotone">
	<g id="ui_x5F_spec_x5F_header_copy">
	</g>
	<g>
		<circle class="st1" cx="9" cy="8.5" r="1.5"/>
		<path class="st1" d="M4.3,17h9.3c-0.8-0.6-2.9-1.3-4.7-1.3S5.2,16.4,4.3,17z"/>
		<path class="st2" d="M9,12c1.9,0,3.5-1.6,3.5-3.5S10.9,5,9,5S5.5,6.6,5.5,8.5S7.1,12,9,12z M9,7c0.8,0,1.5,0.7,1.5,1.5
			S9.8,10,9,10S7.5,9.3,7.5,8.5S8.2,7,9,7z"/>
		<path class="st2" d="M9,13.7c-2.3,0-7,1.2-7,3.5V19h14v-1.8C16,14.9,11.3,13.7,9,13.7z M4.3,17c0.8-0.6,2.9-1.3,4.7-1.3
			s3.8,0.7,4.7,1.3H4.3z"/>
		<path class="st2" d="M16,13.8c1.2,0.8,2,2,2,3.4V19h4v-1.8C22,15.2,18.5,14.1,16,13.8z"/>
		<path class="st2" d="M15,12c1.9,0,3.5-1.6,3.5-3.5S16.9,5,15,5c-0.5,0-1,0.1-1.5,0.3c0.6,0.9,1,2,1,3.1s-0.4,2.3-1,3.1
			C14,11.9,14.5,12,15,12z"/>
	</g>
</g>
</svg>
