<?xml version="1.0" encoding="utf-8"?>
<!-- Generator: Adobe Illustrator 22.0.1, SVG Export Plug-In . SVG Version: 6.00 Build 0)  -->
<svg version="1.1" id="Laag_1" xmlns="http://www.w3.org/2000/svg" xmlns:xlink="http://www.w3.org/1999/xlink" x="0px" y="0px"
	 viewBox="0 0 24 24" style="enable-background:new 0 0 24 24;" xml:space="preserve">
<style type="text/css">
	.st0{fill:none;}
	.st1{opacity:0.3;enable-background:new    ;}
	.st2{fill:#FFFFFF;}
</style>
<g id="Bounding_Boxes">
	<g id="ui_x5F_spec_x5F_header_copy_3">
	</g>
	<path class="st0" d="M0,0h24v24H0V0z"/>
</g>
<g id="Duotone">
	<g id="ui_x5F_spec_x5F_header_copy_2">
	</g>
	<g>
		<path class="st1" d="M12,4c-4.4,0-8,3.6-8,8s3.6,8,8,8s8-3.6,8-8S16.4,4,12,4z M15.5,8C16.3,8,17,8.7,17,9.5S16.3,11,15.5,11
			S14,10.3,14,9.5S14.7,8,15.5,8z M8.5,8C9.3,8,10,8.7,10,9.5S9.3,11,8.5,11S7,10.3,7,9.5S7.7,8,8.5,8z M12,17.5
			c-2.3,0-4.3-1.5-5.1-3.5h10.2C16.3,16,14.3,17.5,12,17.5z"/>
		<circle class="st2" cx="15.5" cy="9.5" r="1.5"/>
		<path class="st2" d="M12,2C6.5,2,2,6.5,2,12s4.5,10,10,10c5.5,0,10-4.5,10-10S17.5,2,12,2z M12,20c-4.4,0-8-3.6-8-8s3.6-8,8-8
			s8,3.6,8,8S16.4,20,12,20z"/>
		<circle class="st2" cx="8.5" cy="9.5" r="1.5"/>
		<path class="st2" d="M12,17.5c2.3,0,4.3-1.5,5.1-3.5H6.9C7.7,16,9.7,17.5,12,17.5z"/>
	</g>
</g>
</svg>
