<?xml version="1.0" encoding="utf-8"?>
<!-- Generator: Adobe Illustrator 22.0.1, SVG Export Plug-In . SVG Version: 6.00 Build 0)  -->
<svg version="1.1" xmlns="http://www.w3.org/2000/svg" xmlns:xlink="http://www.w3.org/1999/xlink" x="0px" y="0px"
	 viewBox="0 0 24 24" style="enable-background:new 0 0 24 24;" xml:space="preserve">
<style type="text/css">
	.st0{display:none;}
	.st1{display:inline;stroke:#FFFFFF;stroke-miterlimit:10;}
	.st2{fill:none;}
	.st3{opacity:0.3;enable-background:new    ;}
	.st4{fill:#FFFFFF;}
</style>
<g id="Laag_2" class="st0">
	<rect x="-4" y="-6" class="st1" width="30.2" height="35.6"/>
</g>
<g id="Laag_1">
	<g id="Bounding_Boxes">
		<g id="ui_x5F_spec_x5F_header_copy_2">
		</g>
		<path class="st2" d="M0,0h24v24H0V0z"/>
	</g>
	<g id="Duotone">
		<g id="ui_x5F_spec_x5F_header_copy_3">
		</g>
		<g>
			<path class="st3" d="M12.1,6c-3.9,0-7,3.1-7,7s3.1,7,7,7s7-3.1,7-7S15.9,6,12.1,6z M13.1,14h-2V8h2V14z"/>
			<rect x="9.1" y="1" class="st4" width="6" height="2"/>
			<rect x="11.1" y="8" class="st4" width="2" height="6"/>
			<path class="st4" d="M19.1,7.4L20.5,6c-0.4-0.5-0.9-1-1.4-1.4L17.7,6c-1.5-1.2-3.5-2-5.6-2c-5,0-9,4-9,9s4,9,9,9s9-4,9-9
				C21.1,10.9,20.3,8.9,19.1,7.4z M12.1,20c-3.9,0-7-3.1-7-7s3.1-7,7-7s7,3.1,7,7S15.9,20,12.1,20z"/>
		</g>
	</g>
</g>
</svg>
